<?xml version="1.0" standalone="no"?>
<!DOCTYPE svg PUBLIC "-//W3C//DTD SVG 20010904//EN"
 "http://www.w3.org/TR/2001/REC-SVG-20010904/DTD/svg10.dtd">
<svg version="1.0" xmlns="http://www.w3.org/2000/svg"
 width="1024.000000pt" height="1024.000000pt" viewBox="0 0 1024.000000 1024.000000"
 preserveAspectRatio="xMidYMid meet">
<metadata>
Created by potrace 1.16, written by Peter Selinger 2001-2019
</metadata>
<g transform="translate(0.000000,1024.000000) scale(0.100000,-0.100000)"
fill="#000000" stroke="none">
<path d="M4585 10229 c-49 -4 -126 -13 -170 -18 -44 -6 -102 -13 -130 -16 -27
-3 -59 -10 -70 -15 -11 -5 -38 -11 -60 -14 -87 -11 -121 -18 -140 -26 -20 -8
-54 -16 -125 -26 -19 -3 -44 -9 -55 -13 -40 -16 -92 -31 -108 -31 -10 0 -25
-4 -35 -9 -29 -14 -87 -31 -110 -31 -11 0 -24 -4 -27 -10 -3 -5 -17 -10 -30
-10 -13 0 -27 -4 -30 -10 -3 -5 -17 -10 -30 -10 -13 0 -27 -4 -30 -10 -3 -5
-15 -10 -26 -10 -10 0 -27 -4 -37 -9 -9 -5 -28 -13 -42 -18 -14 -6 -38 -16
-55 -23 -16 -7 -39 -16 -50 -20 -11 -4 -32 -12 -47 -19 -16 -6 -38 -15 -50
-20 -13 -5 -54 -23 -93 -41 -38 -18 -79 -36 -90 -40 -31 -12 -159 -74 -165
-80 -3 -3 -36 -21 -75 -40 -38 -19 -72 -37 -75 -40 -3 -3 -18 -12 -35 -20 -16
-8 -49 -27 -72 -42 -23 -15 -44 -28 -48 -28 -4 0 -26 -13 -50 -30 -24 -16 -48
-30 -54 -30 -6 0 -11 -4 -11 -10 0 -5 -7 -10 -15 -10 -8 0 -15 -4 -15 -10 0
-5 -6 -10 -13 -10 -7 0 -22 -8 -33 -17 -10 -10 -31 -24 -46 -32 -16 -8 -28
-18 -28 -23 0 -4 -4 -8 -10 -8 -9 0 -71 -43 -123 -86 -9 -8 -21 -14 -25 -14
-4 0 -20 -12 -37 -28 -16 -15 -46 -39 -67 -54 -20 -15 -42 -33 -50 -40 -7 -7
-30 -26 -51 -42 -21 -15 -53 -42 -70 -60 -18 -17 -49 -43 -69 -59 -48 -36
-399 -387 -435 -435 -16 -20 -42 -51 -59 -69 -18 -17 -45 -49 -60 -70 -16 -21
-35 -44 -42 -51 -7 -8 -25 -30 -40 -50 -15 -21 -39 -50 -54 -67 -16 -16 -28
-33 -28 -37 0 -4 -6 -16 -14 -25 -43 -52 -86 -114 -86 -123 0 -6 -4 -10 -8
-10 -5 0 -15 -12 -23 -27 -8 -16 -22 -37 -31 -47 -10 -11 -18 -24 -18 -28 0
-5 -5 -14 -10 -21 -15 -18 -90 -137 -90 -143 0 -3 -13 -24 -28 -47 -15 -23
-34 -55 -42 -72 -8 -16 -17 -32 -20 -35 -11 -10 -146 -277 -160 -315 -4 -11
-22 -51 -40 -90 -18 -38 -36 -80 -41 -92 -13 -32 -27 -69 -40 -100 -13 -31
-27 -65 -42 -103 -5 -14 -13 -33 -18 -42 -5 -10 -9 -27 -9 -37 0 -11 -4 -23
-10 -26 -5 -3 -10 -17 -10 -30 0 -13 -4 -27 -10 -30 -5 -3 -10 -17 -10 -30 0
-13 -4 -27 -10 -30 -5 -3 -10 -19 -10 -35 0 -16 -4 -32 -10 -35 -5 -3 -10 -19
-10 -35 0 -16 -4 -32 -10 -35 -5 -3 -10 -19 -10 -35 0 -16 -5 -32 -10 -35 -6
-3 -10 -19 -10 -35 0 -16 -5 -32 -10 -35 -6 -3 -10 -24 -10 -45 0 -21 -5 -42
-10 -45 -6 -3 -10 -24 -10 -45 0 -21 -4 -42 -10 -45 -5 -3 -10 -24 -10 -45 0
-21 -5 -42 -10 -45 -6 -3 -10 -28 -10 -54 0 -26 -4 -51 -9 -56 -9 -10 -18 -68
-27 -185 -3 -36 -10 -76 -17 -89 -9 -18 -12 -176 -12 -631 0 -455 3 -613 12
-631 7 -13 14 -53 17 -89 9 -117 18 -175 27 -184 5 -6 9 -31 9 -57 0 -26 5
-51 10 -54 6 -3 10 -24 10 -45 0 -21 5 -42 10 -45 6 -3 10 -24 10 -45 0 -21 4
-42 10 -45 5 -3 10 -24 10 -45 0 -21 5 -42 10 -45 6 -3 10 -19 10 -35 0 -16 5
-32 10 -35 5 -3 10 -19 10 -35 0 -16 5 -32 10 -35 6 -3 10 -19 10 -35 0 -16 5
-32 10 -35 6 -3 10 -19 10 -35 0 -16 5 -32 10 -35 6 -3 10 -17 10 -30 0 -13 5
-27 10 -30 6 -3 10 -17 10 -30 0 -13 5 -27 10 -30 6 -3 10 -15 10 -26 0 -10 4
-27 9 -37 11 -22 37 -85 62 -149 5 -13 14 -34 19 -48 6 -14 14 -35 19 -47 5
-13 23 -54 41 -93 18 -38 36 -79 40 -90 11 -30 151 -307 160 -315 3 -3 12 -18
20 -35 8 -16 27 -49 42 -72 15 -23 28 -44 28 -47 0 -5 71 -120 87 -141 5 -5
14 -22 22 -38 8 -15 18 -27 23 -27 4 0 8 -6 8 -13 0 -7 9 -23 20 -35 11 -12
20 -24 20 -26 0 -5 53 -78 86 -119 8 -9 14 -21 14 -25 0 -4 12 -20 28 -37 15
-16 39 -46 54 -67 15 -20 33 -42 40 -50 7 -7 26 -30 42 -51 15 -21 42 -53 60
-70 17 -18 43 -49 59 -69 36 -48 387 -399 435 -435 20 -16 51 -42 69 -59 17
-18 49 -45 70 -60 21 -16 44 -35 51 -42 8 -7 30 -25 50 -40 21 -15 51 -39 67
-54 17 -16 33 -28 37 -28 4 0 16 -6 25 -14 52 -43 114 -86 123 -86 6 0 10 -4
10 -8 0 -5 12 -15 27 -23 16 -8 37 -22 47 -32 11 -9 26 -17 33 -17 7 0 13 -4
13 -10 0 -5 7 -10 15 -10 8 0 15 -4 15 -10 0 -5 5 -10 11 -10 6 0 30 -13 54
-30 24 -16 46 -30 50 -30 4 0 25 -13 48 -28 23 -15 56 -34 72 -42 17 -8 32
-17 35 -20 3 -3 37 -21 75 -40 39 -19 72 -37 75 -40 6 -6 134 -68 165 -80 11
-4 52 -22 90 -40 39 -18 80 -36 93 -41 12 -5 33 -13 47 -19 14 -5 35 -14 48
-19 64 -25 127 -51 149 -62 10 -5 27 -9 37 -9 11 0 23 -5 26 -10 3 -6 17 -10
30 -10 13 0 27 -4 30 -10 3 -5 17 -10 30 -10 13 0 27 -4 30 -10 3 -5 16 -10
27 -10 23 0 81 -17 110 -31 10 -5 25 -9 35 -9 16 0 68 -15 108 -31 11 -4 36
-10 55 -13 71 -10 105 -18 125 -26 19 -8 53 -15 140 -26 22 -3 49 -9 60 -14
11 -5 43 -12 70 -15 28 -3 86 -10 130 -15 185 -23 302 -28 705 -28 403 0 520
5 705 28 44 5 103 12 130 15 28 3 59 10 70 15 11 5 38 11 60 14 87 11 121 18
140 26 20 8 54 16 125 26 19 3 44 9 55 13 40 16 92 31 108 31 10 0 25 4 35 9
29 14 87 31 110 31 11 0 24 5 27 10 3 6 17 10 30 10 13 0 27 5 30 10 3 6 17
10 30 10 13 0 27 5 30 10 3 6 15 10 26 10 10 0 27 4 37 9 9 5 28 13 42 18 14
6 39 16 55 23 17 7 40 17 53 21 12 5 33 14 47 19 14 6 35 14 48 19 12 5 54 23
92 41 39 18 79 36 90 40 31 12 159 74 165 80 3 3 37 21 75 40 39 19 72 37 75
40 3 3 19 12 35 20 17 8 49 27 72 42 23 15 44 28 48 28 4 0 26 14 50 30 24 17
48 30 54 30 6 0 11 5 11 10 0 6 7 10 15 10 8 0 15 5 15 10 0 6 6 10 13 10 7 0
22 8 33 17 10 10 31 24 47 32 15 8 27 18 27 23 0 4 4 8 10 8 9 0 71 43 123 86
9 8 21 14 25 14 4 0 21 12 37 28 17 15 46 39 67 54 20 15 42 33 50 40 7 7 30
26 51 42 21 15 53 42 70 60 18 17 49 43 69 59 48 36 399 387 435 435 16 20 42
51 59 69 18 17 45 49 60 70 16 21 35 44 42 51 7 8 25 30 40 50 15 21 39 51 54
67 16 17 28 33 28 37 0 4 6 16 14 25 43 52 86 114 86 123 0 6 4 10 8 10 5 0
15 12 23 28 8 15 22 36 32 46 9 11 17 24 17 28 0 5 5 14 10 21 15 18 90 137
90 143 0 3 13 24 28 47 15 23 34 56 42 72 8 17 17 32 20 35 11 10 146 277 160
315 4 11 22 52 40 90 18 39 36 80 41 93 5 12 14 33 19 47 6 14 15 36 20 50 6
14 15 36 20 50 24 61 33 81 41 97 5 10 9 27 9 37 0 11 5 23 10 26 6 3 10 17
10 30 0 13 5 27 10 30 5 3 10 17 10 30 0 13 5 27 10 30 6 3 10 19 10 35 0 16
5 32 10 35 5 3 10 19 10 35 0 16 5 32 10 35 5 3 10 19 10 35 0 16 5 32 10 35
6 3 10 19 10 35 0 16 5 32 10 35 6 3 10 24 10 45 0 21 5 42 10 45 6 3 10 24
10 45 0 21 5 42 10 45 6 3 10 24 10 45 0 21 5 42 10 45 5 3 10 28 10 54 0 26
4 51 9 57 9 9 18 67 27 184 3 36 10 76 17 89 18 35 17 1235 0 1253 -8 7 -13
40 -13 84 0 40 -4 76 -10 79 -5 3 -10 28 -10 55 0 27 -4 52 -10 55 -5 3 -10
28 -10 55 0 27 -4 52 -10 55 -5 3 -10 26 -10 50 0 24 -4 47 -10 50 -5 3 -10
21 -10 40 0 19 -4 37 -10 40 -5 3 -10 24 -10 45 0 21 -4 42 -10 45 -5 3 -10
19 -10 35 0 16 -4 32 -10 35 -5 3 -10 21 -10 40 0 19 -4 37 -10 40 -5 3 -10
17 -10 30 0 13 -4 27 -10 30 -5 3 -10 19 -10 35 0 16 -4 32 -10 35 -5 3 -10
17 -10 30 0 13 -4 27 -10 30 -5 3 -10 17 -10 30 0 13 -4 27 -10 30 -5 3 -10
15 -10 26 0 10 -4 28 -10 39 -5 11 -14 29 -20 40 -5 11 -10 26 -10 35 0 8 -9
30 -20 50 -11 20 -20 42 -20 50 0 8 -9 30 -20 50 -11 20 -20 40 -20 46 0 19
-181 392 -192 397 -5 2 -8 12 -8 23 0 10 -3 19 -8 19 -4 0 -15 17 -24 38 -18
38 -49 93 -58 102 -3 3 -16 26 -29 53 -13 26 -28 47 -33 47 -4 0 -8 5 -8 10 0
6 -22 44 -50 85 -27 41 -50 77 -50 79 0 5 -53 78 -86 119 -8 9 -14 20 -14 22
0 6 -99 136 -110 145 -3 3 -17 21 -30 40 -13 19 -31 42 -40 50 -9 8 -19 20
-21 26 -14 40 -477 521 -551 573 -13 8 -49 40 -81 71 -32 30 -64 57 -70 59 -7
2 -19 12 -27 21 -8 9 -31 27 -50 40 -19 13 -37 27 -40 30 -9 11 -139 110 -145
110 -2 0 -13 6 -22 14 -41 33 -114 86 -119 86 -2 0 -38 23 -79 50 -41 28 -79
50 -85 50 -5 0 -10 4 -10 8 0 5 -21 20 -47 33 -27 13 -50 26 -53 29 -9 9 -64
40 -102 58 -21 9 -38 20 -38 24 0 5 -9 8 -19 8 -11 0 -21 3 -23 8 -1 4 -52 31
-113 61 -60 29 -137 66 -169 82 -32 16 -65 29 -72 29 -8 0 -14 5 -14 10 0 6
-9 10 -20 10 -11 0 -35 9 -55 20 -20 11 -42 20 -50 20 -8 0 -30 9 -50 20 -20
11 -44 20 -55 20 -10 0 -21 4 -24 8 -3 4 -28 14 -56 22 -28 8 -53 18 -56 22
-3 4 -16 8 -29 8 -13 0 -27 5 -30 10 -3 6 -17 10 -30 10 -13 0 -27 5 -30 10
-3 6 -19 10 -35 10 -16 0 -32 5 -35 10 -3 6 -17 10 -30 10 -13 0 -27 5 -30 10
-3 6 -21 10 -40 10 -19 0 -36 4 -39 9 -6 8 -31 14 -119 27 -20 4 -40 10 -43
15 -3 5 -20 9 -39 9 -19 0 -37 5 -40 10 -3 6 -25 10 -49 10 -23 0 -46 4 -51 9
-6 5 -32 12 -60 15 -122 14 -151 18 -160 27 -5 5 -41 9 -80 9 -42 0 -76 5 -83
12 -15 15 -1012 21 -1157 7z m570 -569 c3 -5 14 -10 24 -10 21 0 81 -55 100
-92 8 -16 18 -28 23 -28 4 0 8 -6 8 -13 0 -7 8 -22 18 -33 9 -10 23 -31 31
-46 8 -16 18 -28 23 -28 4 0 8 -5 8 -10 0 -6 93 -151 208 -323 114 -171 214
-324 221 -339 8 -16 18 -28 23 -28 4 0 8 -5 8 -11 0 -6 14 -30 30 -54 17 -24
30 -48 30 -52 0 -5 8 -18 18 -29 9 -10 23 -31 31 -46 8 -16 18 -28 23 -28 4 0
8 -5 8 -11 0 -6 13 -29 28 -52 15 -23 34 -54 41 -69 8 -16 18 -28 23 -28 4 0
8 -5 8 -11 0 -6 13 -29 28 -52 15 -23 34 -54 41 -69 8 -16 18 -28 23 -28 4 0
8 -6 8 -13 0 -7 8 -22 18 -33 10 -10 25 -36 35 -56 10 -20 23 -43 30 -50 7 -7
21 -30 30 -50 10 -20 23 -43 30 -50 7 -7 23 -34 36 -60 13 -27 27 -48 30 -48
3 0 12 -15 20 -32 8 -18 27 -52 43 -75 15 -23 28 -44 28 -48 0 -4 14 -26 30
-50 17 -24 30 -46 30 -50 0 -4 14 -26 30 -50 17 -24 30 -47 30 -50 0 -4 8 -19
19 -33 10 -15 28 -43 39 -63 42 -76 47 -84 52 -89 3 -3 11 -15 18 -27 6 -13
18 -33 25 -45 6 -13 14 -25 17 -28 3 -3 14 -23 26 -45 28 -54 48 -89 54 -95 3
-3 18 -30 33 -60 28 -57 58 -111 67 -120 3 -3 14 -23 26 -45 27 -52 48 -89 54
-95 4 -4 111 -210 144 -277 6 -13 14 -23 19 -23 4 0 7 -9 7 -19 0 -11 3 -21 8
-23 7 -3 384 -756 402 -803 4 -11 27 -60 50 -110 23 -49 46 -99 50 -110 4 -11
21 -49 39 -84 17 -35 31 -70 31 -77 0 -7 9 -29 20 -49 11 -20 20 -42 20 -50 0
-8 9 -30 20 -50 11 -20 20 -42 20 -50 0 -8 9 -30 20 -50 11 -20 20 -42 20 -50
0 -8 9 -30 20 -50 11 -20 20 -44 20 -55 0 -10 5 -22 10 -25 6 -3 10 -17 10
-30 0 -13 5 -27 10 -30 6 -3 10 -17 10 -30 0 -13 5 -27 10 -30 6 -3 10 -17 10
-30 0 -13 5 -27 10 -30 6 -3 10 -17 10 -30 0 -13 5 -27 10 -30 6 -3 10 -17 10
-30 0 -13 5 -27 10 -30 6 -3 10 -17 10 -30 0 -13 5 -27 10 -30 6 -3 10 -21 10
-40 0 -19 5 -37 10 -40 6 -3 10 -19 10 -35 0 -16 5 -32 10 -35 6 -3 10 -21 10
-40 0 -19 5 -37 10 -40 6 -3 10 -23 10 -44 0 -20 4 -41 9 -46 10 -11 19 -71
27 -180 3 -38 10 -74 15 -80 12 -13 12 -322 -1 -330 -6 -3 -10 -51 -10 -109 0
-56 -4 -106 -9 -111 -5 -6 -12 -37 -15 -70 -10 -109 -18 -160 -27 -169 -5 -6
-9 -25 -9 -42 0 -18 -4 -36 -10 -39 -5 -3 -10 -21 -10 -40 0 -19 -4 -37 -10
-40 -5 -3 -10 -21 -10 -40 0 -19 -4 -37 -10 -40 -5 -3 -10 -17 -10 -30 0 -13
-4 -27 -10 -30 -5 -3 -10 -17 -10 -30 0 -13 -4 -27 -10 -30 -5 -3 -10 -15 -10
-26 0 -10 -4 -27 -9 -37 -5 -9 -14 -30 -21 -47 -7 -16 -16 -38 -21 -47 -5 -10
-9 -27 -9 -38 0 -11 -4 -20 -10 -20 -5 0 -10 -6 -10 -13 0 -17 -130 -274 -158
-315 -12 -16 -22 -33 -22 -37 0 -3 -13 -25 -28 -48 -15 -23 -34 -54 -41 -69
-8 -15 -21 -36 -30 -45 -9 -10 -27 -34 -41 -53 -13 -19 -27 -37 -30 -40 -3 -3
-17 -21 -30 -40 -13 -19 -27 -37 -30 -40 -3 -3 -17 -20 -29 -39 -58 -82 -361
-384 -443 -442 -18 -13 -35 -26 -38 -29 -3 -3 -21 -17 -40 -30 -19 -13 -37
-27 -40 -30 -3 -3 -21 -17 -40 -30 -19 -14 -43 -32 -53 -41 -9 -9 -30 -22 -45
-30 -15 -7 -46 -26 -69 -41 -23 -15 -46 -28 -50 -28 -5 0 -18 -8 -29 -18 -10
-9 -95 -55 -189 -101 -187 -92 -192 -94 -250 -112 -22 -7 -44 -17 -50 -21 -5
-4 -17 -8 -27 -8 -10 0 -28 -5 -41 -12 -48 -25 -58 -28 -81 -28 -14 0 -28 -4
-31 -10 -3 -5 -22 -10 -41 -10 -19 0 -34 -4 -34 -9 0 -5 -15 -11 -32 -14 -18
-3 -53 -11 -78 -17 -25 -7 -65 -14 -90 -16 -25 -3 -54 -9 -65 -14 -11 -5 -45
-12 -75 -15 -30 -3 -95 -10 -145 -16 -116 -14 -514 -14 -630 0 -49 6 -115 13
-145 16 -30 3 -64 10 -75 15 -11 5 -40 11 -65 14 -25 2 -65 9 -90 16 -25 6
-60 14 -77 17 -18 3 -33 9 -33 14 0 5 -15 9 -34 9 -19 0 -38 5 -41 10 -3 6
-17 10 -31 10 -13 0 -33 5 -44 10 -11 6 -29 15 -40 20 -11 6 -28 10 -38 10
-10 0 -22 4 -27 8 -6 4 -28 14 -50 21 -58 18 -63 20 -250 112 -93 46 -179 92
-189 101 -11 10 -24 18 -29 18 -4 0 -27 13 -50 28 -23 15 -54 34 -69 41 -15 8
-36 21 -45 30 -10 9 -34 27 -53 41 -19 13 -37 27 -40 30 -3 3 -21 17 -40 30
-19 13 -37 27 -40 30 -3 3 -20 16 -38 29 -82 58 -385 360 -443 442 -12 19 -26
36 -29 39 -3 3 -17 21 -30 40 -13 19 -27 37 -30 40 -3 3 -17 21 -30 40 -14 19
-32 43 -41 53 -9 9 -22 30 -30 45 -7 15 -26 46 -41 69 -15 23 -28 45 -28 48 0
4 -10 21 -22 37 -28 41 -158 298 -158 315 0 7 -4 13 -10 13 -5 0 -10 9 -10 20
0 11 -4 28 -9 38 -5 9 -14 31 -21 47 -7 17 -16 38 -21 47 -5 10 -9 27 -9 37 0
11 -4 23 -10 26 -5 3 -10 17 -10 30 0 13 -4 27 -10 30 -5 3 -10 17 -10 30 0
13 -4 27 -10 30 -5 3 -10 21 -10 40 0 19 -4 37 -10 40 -5 3 -10 21 -10 40 0
19 -4 37 -10 40 -6 3 -10 21 -10 39 0 17 -4 36 -9 42 -9 9 -17 60 -27 169 -3
33 -10 64 -15 70 -5 5 -9 55 -9 111 0 58 -4 106 -10 109 -13 8 -13 317 -1 330
5 6 12 42 15 80 8 109 17 169 27 180 5 5 9 26 9 46 0 21 5 41 10 44 6 3 10 21
10 40 0 19 5 37 10 40 6 3 10 19 10 35 0 16 5 32 10 35 6 3 10 21 10 40 0 19
5 37 10 40 6 3 10 17 10 30 0 13 5 27 10 30 5 3 10 17 10 30 0 13 5 27 10 30
6 3 10 17 10 30 0 13 5 27 10 30 6 3 10 17 10 30 0 13 5 27 10 30 6 3 10 17
10 30 0 13 5 27 10 30 5 3 10 17 10 30 0 13 4 27 10 30 5 3 10 15 10 25 0 11
9 35 20 55 11 20 20 42 20 50 0 8 9 30 20 50 11 20 20 42 20 50 0 8 9 30 20
50 11 20 20 42 20 50 0 8 9 30 20 50 11 20 20 42 20 49 0 7 14 42 31 77 18 35
35 73 39 84 4 11 27 61 50 110 23 50 46 99 50 110 18 47 395 800 402 803 5 2
8 12 8 23 0 10 3 19 8 19 4 0 12 10 18 23 33 67 140 273 144 277 6 6 27 43 54
95 12 22 23 42 26 45 9 9 39 63 67 120 15 30 30 57 33 60 6 6 26 41 54 95 12
22 23 42 26 45 3 3 11 15 18 28 6 12 18 32 25 45 6 12 14 24 17 27 5 5 10 13
52 89 11 20 29 48 39 63 11 14 19 29 19 33 0 3 14 26 30 50 17 24 30 46 30 50
0 4 14 26 30 50 17 24 30 46 30 50 0 4 13 25 28 48 16 23 35 57 43 75 8 17 17
32 20 32 3 0 17 21 30 48 13 26 29 53 36 60 7 7 20 30 30 50 9 20 23 43 30 50
7 7 20 30 30 50 10 20 25 46 35 56 10 11 18 26 18 33 0 7 4 13 8 13 5 0 15 12
23 28 7 15 26 46 41 69 15 23 28 46 28 52 0 6 4 11 8 11 5 0 15 12 23 28 7 15
26 46 41 69 15 23 28 44 28 48 0 3 9 15 20 27 11 12 20 28 20 35 0 7 4 13 8
13 5 0 15 12 23 28 7 15 26 46 41 69 15 23 28 46 28 52 0 6 4 11 8 11 5 0 15
12 23 28 7 15 107 168 221 339 115 172 208 317 208 323 0 5 4 10 8 10 5 0 15
12 23 28 8 15 22 36 32 46 9 11 17 26 17 33 0 7 4 13 8 13 5 0 15 12 23 28 19
37 79 92 100 92 10 0 21 5 24 10 3 6 19 10 35 10 16 0 32 -4 35 -10z"/>
<path d="M5086 9176 c-9 -14 -16 -30 -16 -36 0 -5 -4 -10 -8 -10 -5 0 -15 -12
-23 -27 -8 -16 -22 -37 -31 -47 -10 -11 -18 -26 -18 -33 0 -7 -4 -13 -8 -13
-5 0 -15 -12 -23 -27 -8 -16 -22 -37 -31 -47 -10 -11 -18 -26 -18 -33 0 -7 -4
-13 -8 -13 -5 0 -15 -12 -23 -27 -8 -16 -22 -37 -31 -47 -10 -11 -18 -26 -18
-33 0 -7 -4 -13 -8 -13 -5 0 -15 -12 -23 -27 -7 -16 -26 -47 -41 -70 -15 -23
-28 -46 -28 -52 0 -6 -4 -11 -8 -11 -5 0 -15 -12 -23 -27 -8 -16 -22 -37 -31
-47 -10 -11 -18 -24 -18 -29 0 -4 -13 -28 -30 -52 -16 -24 -30 -48 -30 -54 0
-6 -4 -11 -8 -11 -5 0 -15 -12 -23 -27 -8 -16 -22 -37 -31 -47 -10 -11 -18
-24 -18 -28 0 -5 -22 -42 -50 -83 -27 -41 -50 -77 -50 -80 0 -4 -13 -26 -30
-50 -16 -24 -30 -48 -30 -54 0 -6 -4 -11 -8 -11 -5 0 -20 -21 -33 -47 -13 -27
-32 -57 -41 -67 -10 -11 -18 -24 -18 -29 0 -4 -13 -28 -30 -52 -16 -24 -30
-46 -30 -50 0 -4 -13 -26 -30 -50 -16 -24 -30 -48 -30 -54 0 -6 -3 -11 -8 -11
-4 0 -18 -21 -32 -47 -14 -27 -33 -57 -42 -67 -10 -11 -18 -24 -18 -29 0 -4
-13 -27 -28 -50 -15 -23 -34 -55 -42 -72 -8 -16 -18 -32 -21 -35 -3 -3 -20
-32 -38 -65 -18 -32 -40 -71 -50 -85 -9 -14 -23 -38 -31 -55 -8 -16 -26 -48
-40 -70 -14 -22 -32 -53 -40 -70 -8 -16 -17 -32 -20 -35 -6 -6 -27 -43 -54
-95 -12 -22 -23 -42 -26 -45 -6 -6 -27 -43 -54 -95 -12 -22 -26 -46 -33 -52
-6 -7 -24 -39 -39 -70 -16 -32 -31 -60 -34 -63 -6 -6 -35 -61 -94 -175 -22
-44 -43 -82 -46 -85 -11 -11 -43 -73 -147 -280 -59 -118 -111 -216 -115 -218
-4 -2 -8 -12 -8 -23 0 -10 -4 -19 -10 -19 -5 0 -10 -6 -10 -12 0 -7 -32 -78
-71 -158 -39 -80 -79 -163 -89 -185 -10 -22 -32 -71 -50 -110 -18 -38 -36 -79
-40 -90 -4 -11 -18 -42 -30 -70 -12 -27 -26 -59 -30 -70 -4 -11 -17 -40 -29
-63 -11 -24 -21 -50 -21 -58 0 -7 -9 -29 -20 -49 -11 -20 -20 -42 -20 -50 0
-9 -4 -23 -9 -33 -5 -9 -14 -30 -21 -47 -7 -16 -16 -38 -21 -47 -5 -10 -9 -25
-9 -33 0 -8 -5 -24 -10 -35 -5 -11 -14 -29 -20 -40 -5 -11 -10 -29 -10 -39 0
-11 -4 -23 -10 -26 -5 -3 -10 -19 -10 -35 0 -16 -4 -32 -10 -35 -5 -3 -10 -17
-10 -30 0 -13 -4 -27 -10 -30 -5 -3 -10 -17 -10 -30 0 -13 -4 -27 -10 -30 -6
-3 -10 -17 -10 -30 0 -13 -5 -27 -10 -30 -5 -3 -10 -21 -10 -40 0 -19 -4 -37
-10 -40 -6 -3 -10 -26 -10 -50 0 -24 -5 -47 -10 -50 -5 -3 -10 -21 -10 -40 0
-19 -4 -37 -10 -40 -5 -3 -10 -26 -10 -50 0 -24 -5 -47 -10 -50 -6 -3 -10 -50
-10 -105 0 -55 -4 -102 -10 -105 -6 -3 -10 -30 -10 -60 0 -30 4 -57 10 -60 6
-4 10 -62 10 -140 0 -78 4 -136 10 -140 6 -3 10 -33 10 -65 0 -32 5 -62 10
-65 6 -3 10 -28 10 -55 0 -27 5 -52 10 -55 6 -3 10 -21 10 -40 0 -19 5 -37 10
-40 6 -3 10 -21 10 -40 0 -19 4 -37 10 -40 5 -3 10 -21 10 -40 0 -19 4 -37 10
-40 5 -3 10 -15 10 -26 0 -10 4 -27 9 -37 5 -9 14 -30 21 -47 7 -16 16 -38 21
-47 5 -10 9 -25 9 -33 0 -8 4 -23 9 -33 5 -9 17 -35 26 -57 35 -83 110 -231
137 -272 15 -23 28 -46 28 -50 0 -5 8 -18 18 -29 10 -10 24 -33 32 -49 31 -64
223 -304 327 -410 151 -153 225 -221 303 -275 19 -13 37 -27 40 -30 3 -3 21
-17 40 -30 19 -14 44 -32 54 -42 11 -10 24 -18 29 -18 4 0 28 -14 52 -30 24
-17 47 -30 50 -30 4 0 21 -10 37 -22 41 -28 298 -158 315 -158 7 0 21 -4 31
-9 9 -5 31 -14 47 -21 17 -7 38 -16 47 -21 10 -5 27 -9 37 -9 11 0 23 -4 26
-10 3 -5 17 -10 30 -10 13 0 27 -5 30 -10 3 -6 16 -10 27 -10 12 0 35 -4 52
-9 17 -5 51 -15 76 -21 25 -7 54 -16 65 -21 19 -7 53 -13 170 -25 28 -3 59 -9
70 -14 55 -26 675 -26 730 0 11 5 43 11 70 14 117 12 151 18 170 25 11 5 40
14 65 21 25 6 59 16 76 21 17 5 40 9 52 9 11 0 24 5 27 10 3 6 17 10 30 10 13
0 27 5 30 10 3 6 15 10 26 10 10 0 27 4 37 9 9 5 31 14 47 21 17 7 38 16 47
21 10 5 24 9 31 9 17 0 274 130 315 158 16 12 33 22 37 22 3 0 26 14 50 30 24
17 48 30 52 30 5 0 18 8 29 18 10 10 35 28 54 42 19 13 37 27 40 30 3 3 21 17
40 30 78 54 152 122 303 275 104 106 296 346 327 410 8 16 22 39 32 49 10 11
18 24 18 29 0 4 13 27 28 50 27 41 102 189 137 272 9 22 21 48 26 57 5 10 9
25 9 33 0 8 4 23 9 33 5 9 14 31 21 47 7 17 16 38 21 47 5 10 9 27 9 37 0 11
5 23 10 26 6 3 10 21 10 40 0 19 5 37 10 40 6 3 10 21 10 40 0 19 4 37 10 40
6 3 10 21 10 40 0 19 5 37 10 40 6 3 10 28 10 55 0 27 5 52 10 55 6 3 10 33
10 65 0 32 5 62 10 65 6 4 10 62 10 140 0 78 4 136 10 140 6 3 10 30 10 60 0
30 -4 57 -10 60 -6 3 -10 50 -10 105 0 55 -4 102 -10 105 -5 3 -10 26 -10 50
0 24 -4 47 -10 50 -5 3 -10 21 -10 40 0 19 -4 37 -10 40 -5 3 -10 26 -10 50 0
24 -4 47 -10 50 -5 3 -10 21 -10 40 0 19 -4 37 -10 40 -5 3 -10 17 -10 30 0
13 -4 27 -10 30 -5 3 -10 17 -10 30 0 13 -4 27 -10 30 -5 3 -10 17 -10 30 0
13 -4 27 -10 30 -5 3 -10 19 -10 35 0 16 -4 32 -10 35 -5 3 -10 15 -10 26 0
10 -4 28 -10 39 -5 11 -14 29 -20 40 -5 11 -10 27 -10 35 0 8 -4 23 -9 33 -5
9 -14 31 -21 47 -7 17 -16 38 -21 47 -5 10 -9 24 -9 33 0 8 -9 30 -20 50 -11
20 -20 42 -20 49 0 8 -10 34 -21 58 -12 23 -25 52 -29 63 -4 11 -18 43 -30 70
-12 28 -26 59 -30 70 -4 11 -22 52 -40 90 -18 39 -40 88 -50 110 -10 22 -50
105 -89 185 -39 80 -71 151 -71 158 0 6 -4 12 -10 12 -5 0 -10 9 -10 19 0 11
-4 21 -8 23 -4 2 -56 100 -115 218 -104 207 -136 269 -147 280 -3 3 -24 41
-46 85 -59 114 -88 169 -94 175 -3 3 -18 31 -34 63 -15 31 -33 63 -39 70 -7 6
-21 30 -33 52 -27 52 -48 89 -54 95 -3 3 -14 23 -26 45 -27 52 -48 89 -54 95
-3 3 -12 19 -20 35 -8 17 -26 48 -40 70 -14 22 -32 54 -40 70 -8 17 -22 41
-31 55 -10 14 -32 53 -50 85 -18 33 -35 62 -38 65 -3 3 -13 19 -21 35 -8 17
-27 49 -42 72 -15 23 -28 46 -28 50 0 5 -8 18 -18 29 -9 10 -28 40 -42 67 -14
26 -28 47 -32 47 -5 0 -8 5 -8 11 0 6 -13 30 -30 54 -16 24 -30 46 -30 50 0 4
-13 26 -30 50 -16 24 -30 48 -30 52 0 5 -8 18 -18 29 -9 10 -28 40 -41 67 -13
26 -28 47 -33 47 -4 0 -8 5 -8 11 0 6 -13 30 -30 54 -16 24 -30 46 -30 50 0 3
-21 38 -48 78 -26 40 -54 84 -61 100 -8 15 -18 27 -23 27 -4 0 -8 6 -8 13 0 7
-9 23 -20 35 -11 12 -20 24 -20 27 0 4 -13 26 -30 50 -16 24 -30 48 -30 52 0
5 -8 18 -17 29 -10 10 -24 31 -32 47 -8 15 -18 27 -23 27 -4 0 -8 5 -8 11 0 6
-13 29 -28 52 -15 23 -34 54 -41 70 -8 15 -18 27 -23 27 -4 0 -8 6 -8 13 0 7
-8 22 -17 33 -10 10 -24 31 -32 47 -8 15 -18 27 -23 27 -4 0 -8 6 -8 13 0 7
-8 22 -17 33 -10 10 -24 31 -32 47 -8 15 -18 27 -23 27 -4 0 -8 6 -8 13 0 7
-9 23 -20 35 -11 12 -20 25 -20 30 0 4 -8 17 -17 28 -10 11 -26 33 -35 49 -22
39 -50 43 -72 11z m984 -2561 l0 -185 -625 0 -625 0 0 -210 0 -210 -123 0
-124 0 -6 103 c-8 122 -26 188 -70 253 -41 62 -99 102 -178 124 l-64 17 -3
147 -3 146 911 0 910 0 0 -185z m-615 -896 c244 -28 438 -106 535 -216 77 -88
116 -197 126 -353 14 -232 -67 -418 -227 -521 -184 -118 -570 -175 -930 -138
-413 41 -626 173 -695 429 -22 81 -25 280 -5 360 38 156 129 269 271 338 215
104 562 142 925 101z m615 -1954 l0 -185 -625 0 -625 0 0 -210 0 -210 -123 0
-124 0 -6 103 c-8 122 -26 188 -70 253 -41 62 -99 102 -178 124 l-64 17 -3
147 -3 146 911 0 910 0 0 -185z m1396 -252 c-6 -152 -15 -236 -27 -247 -5 -6
-9 -31 -9 -57 0 -26 -4 -51 -10 -54 -5 -3 -10 -21 -10 -40 0 -19 -4 -37 -10
-40 -5 -3 -10 -19 -10 -35 0 -16 -4 -32 -10 -35 -5 -3 -10 -17 -10 -31 0 -13
-4 -33 -10 -44 -5 -11 -14 -29 -20 -40 -5 -11 -10 -29 -10 -39 0 -11 -4 -23
-10 -26 -5 -3 -10 -14 -10 -23 0 -19 -84 -197 -142 -301 -11 -20 -29 -48 -39
-63 -11 -14 -19 -30 -19 -35 0 -4 -18 -32 -40 -61 -22 -29 -40 -55 -40 -58 0
-3 -13 -19 -30 -37 -16 -18 -30 -36 -30 -40 0 -5 -20 -29 -44 -55 -24 -26 -57
-63 -72 -82 -37 -44 -100 -107 -144 -144 -19 -15 -56 -48 -82 -72 -26 -24 -50
-44 -55 -44 -4 0 -22 -14 -40 -30 -18 -17 -34 -30 -37 -30 -3 0 -29 -18 -58
-40 -29 -22 -58 -40 -64 -40 -5 0 -19 -8 -30 -17 -10 -10 -39 -29 -64 -42 -25
-13 -69 -37 -99 -52 -29 -16 -59 -29 -67 -29 -8 0 -14 -4 -14 -10 0 -5 -7 -10
-15 -10 -8 0 -30 -9 -50 -20 -20 -11 -42 -20 -50 -20 -9 0 -23 -4 -33 -9 -9
-5 -30 -14 -47 -21 -16 -7 -38 -16 -47 -21 -10 -5 -27 -9 -37 -9 -11 0 -23 -5
-26 -10 -3 -6 -21 -10 -40 -10 -19 0 -37 -4 -40 -10 -3 -5 -21 -10 -40 -10
-19 0 -37 -4 -40 -10 -3 -5 -25 -10 -49 -10 -23 0 -46 -4 -51 -9 -12 -11 -90
-20 -268 -29 l-137 -7 0 162 0 162 108 5 c153 7 236 16 247 27 5 5 28 9 51 9
24 0 46 5 49 10 3 6 21 10 40 10 19 0 37 5 40 10 3 6 17 10 31 10 13 0 33 5
44 10 11 5 29 15 40 20 11 6 29 10 39 10 11 0 23 4 26 10 3 5 14 10 24 10 18
0 291 134 300 148 3 4 23 16 43 25 20 10 43 23 50 30 7 7 29 24 48 37 19 13
37 27 40 30 3 3 21 17 41 32 20 15 54 44 76 65 22 21 56 52 74 69 41 36 153
160 176 195 9 13 20 26 23 29 13 10 110 160 110 170 0 5 4 10 9 10 7 0 117
213 143 280 6 14 14 33 19 42 5 10 9 27 9 37 0 11 5 23 10 26 6 3 10 17 10 30
0 13 5 27 10 30 6 3 10 19 10 35 0 16 5 32 10 35 6 3 10 21 10 40 0 19 5 37
10 40 6 3 10 28 10 54 0 26 4 51 9 56 10 10 18 81 27 228 l5 87 160 0 160 0
-5 -117z"/>
<path d="M4885 5349 c-94 -11 -184 -33 -231 -55 -137 -65 -151 -274 -24 -358
83 -55 285 -86 555 -86 254 0 449 31 537 84 88 53 122 158 83 254 -53 126
-179 162 -580 167 -143 2 -296 -1 -340 -6z"/>
</g>
</svg>
